<svg enable-background="new 0 0 120 60" height="60" viewBox="0 0 120 60" width="120" xmlns="http://www.w3.org/2000/svg"><path d="m106.8 19.8h-4.6l5.9 10.2-5.9 10.2h4.6l5.9-10.2z" fill="#3acce6"/><path d="m13.2 19.8h4.6l-5.9 10.2 5.9 10.2h-4.6l-5.9-10.2z" fill="#3acce6"/><path d="m16.1 40.2-5.9-10.2 5.9-10.2h87.8l5.9 10.2-5.9 10.2z" fill="#003e54"/><g fill="#fff"><path d="m22.1 36.2h-3.7v-12.4h3.9c3.6 0 6.2 1.7 6.2 6.2-.1 4.4-3.3 6.2-6.4 6.2zm.1-10h-1.3v7.6h1.2c2.6 0 3.8-1.5 3.8-3.8 0-2.5-1.1-3.8-3.7-3.8z"/><path d="m31.3 36.2v-12.4h8.6v2.4h-6.2v2.1h3.6v2.4h-3.6v3h6.4v2.4z"/><path d="m48.9 36.2h-2.4l-4.4-12.4h2.8l2.3 7.2c.2.7.5 1.6.6 2 .1-.5.3-1.3.6-2l2.3-7.2h2.7z"/><path d="m61.2 31.8h-2.7v4.4h-2.5v-12.4h5.4c2.3 0 4.3 1.3 4.3 3.9 0 2.9-1.9 4.1-4.5 4.1zm.2-5.6h-2.9v3.2h2.9c1.2 0 1.8-.5 1.8-1.6s-.8-1.6-1.8-1.6z"/><path d="m73.2 36.4c-3.4 0-5.4-2.6-5.4-6.4s2-6.4 5.4-6.4 5.4 2.6 5.4 6.4-2 6.4-5.4 6.4zm0-10.3c-2 0-2.8 1.7-2.8 3.9s.8 3.9 2.8 3.9 2.8-1.7 2.8-3.9-.8-3.9-2.8-3.9z"/><path d="m85.4 36.4c-2.1 0-3.9-.9-4.8-2.3l1.8-1.6c.9 1 2 1.4 3.2 1.4 1.5 0 2.2-.4 2.2-1.4 0-.8-.4-1.2-2.8-1.7-2.3-.5-3.9-1.3-3.9-3.7 0-2.3 2-3.6 4.4-3.6 1.9 0 3.4.7 4.5 2l-1.8 1.7c-.8-.8-1.7-1.3-2.8-1.3-1.3 0-1.8.6-1.8 1.1 0 .8.5 1 2.5 1.5s4.1 1.1 4.1 3.8c.1 2.5-1.4 4.1-4.8 4.1z"/><path d="m98.1 26.2v10h-2.5v-10h-3.6v-2.4h9.6v2.4z"/></g></svg>